<svg xmlns="http://www.w3.org/2000/svg" fill="none" viewBox="0 0 359 121">
  <g clip-path="url(#a)">
    <mask id="b" width="400" height="267" x="-24" y="-65" maskUnits="userSpaceOnUse" style="mask-type:luminance">
      <path fill="#fff" d="M-24-65h400v266.667H-24V-65Z"/>
    </mask>
    <g mask="url(#b)">
      <mask id="c" width="217" height="84" x="142" y="20" maskUnits="userSpaceOnUse" style="mask-type:luminance">
        <path fill="#fff" d="M142.796 20.975h215.452v82.504H142.796V20.975Z"/>
      </mask>
      <g mask="url(#c)">
        <path fill="#3B342F" d="M351.26 103.111h6.988v-6.988h-6.988v6.988ZM323.749 70.894v7.17h7.031v18.06h7.26v-18.06h6.953v-7.17h-21.244Z"/>
        <mask id="d" width="217" height="84" x="142" y="20" maskUnits="userSpaceOnUse" style="mask-type:luminance">
          <path fill="#fff" d="M142.796 103.479h215.452V20.975H142.796v82.504Z"/>
        </mask>
        <g fill="#3B342F" mask="url(#d)">
          <path d="M142.796 70.894h11.3c9.078 0 16.383 7.216 16.383 16.11 0 8.896-7.305 16.112-16.383 16.112h-11.3V70.894Zm11.3 25.596c5.4 0 9.078-4.31 9.078-9.485s-3.678-9.485-9.078-9.485h-4.038v18.97h4.038ZM177.148 103.115h7.261V70.893h-7.261v32.222ZM190.493 97.17l5.49-4.494c1.408 2.224 3.722 3.995 5.946 3.995 2.132 0 3.086-.817 3.086-2.315 0-1.453-1.042-2.36-3.766-3.585l-1.818-.816c-4.854-2.179-7.532-5.765-7.532-10.121 0-5.627 4.675-9.303 9.803-9.303 3.585 0 6.308.861 9.031 4.039l-4.9 5.173c-1.635-1.996-2.634-2.404-4.131-2.404-1.225 0-2.496.77-2.496 2.223 0 1.68 1.407 2.588 4.357 3.902l1.724.772c4.448 1.998 7.034 5.218 7.034 9.667 0 5.808-4.266 9.575-10.256 9.575-5.174 0-9.348-2.132-11.572-6.308ZM252.715 90.046h-.091v13.071h-7.261V70.894h12.162c5.264 0 9.576 4.312 9.576 9.576 0 4.038-2.497 7.533-6.218 8.984l10.484 13.663h-8.67l-9.982-13.071Zm3.994-6.128c1.952 0 3.356-1.406 3.356-3.176 0-1.77-1.404-3.222-3.356-3.222h-4.085v6.398h4.085ZM275.999 103.115h7.261V70.893h-7.261v32.222ZM289.297 87.005c0-9.077 7.398-16.473 16.474-16.473 5.537 0 10.484 2.768 13.478 6.988l-5.49 4.493c-1.634-2.633-4.539-4.493-7.988-4.493-5.219 0-9.167 4.312-9.167 9.485 0 5.175 3.948 9.485 9.167 9.485 3.449 0 6.354-1.862 7.988-4.493l5.49 4.493c-2.994 4.22-7.941 6.988-13.478 6.988-9.076 0-16.474-7.397-16.474-16.473ZM174.927 20.976l-16.065 16.11-16.066-16.11V53.56h7.26V37.766l8.806 8.803 8.804-8.803V53.56h7.261V20.976ZM271.684 40.49h-.091v13.07h-7.26V21.34h12.161c5.266 0 9.576 4.31 9.576 9.574 0 4.038-2.496 7.533-6.217 8.985l10.483 13.661h-8.668l-9.984-13.07Zm3.994-6.128c1.952 0 3.358-1.406 3.358-3.178 0-1.769-1.406-3.22-3.358-3.22h-4.085v6.398h4.085ZM294.968 53.56h7.261V21.339h-7.261V53.56ZM343.712 21.338V53.56h14.505v-7.216h-7.245V21.338h-7.26ZM237.236 21.338V53.56h19.968v-7.171h-12.706v-5.447h6.988v-6.988h-6.988V28.51h12.706v-7.17h-19.968ZM194.351 20.976 178.467 53.56h7.625l2.315-4.992h11.889l2.315 4.992h7.625l-15.885-32.584Zm0 14.176 3.552 7.845h-7.104l3.552-7.845ZM322.969 20.976 307.086 53.56h7.624l2.315-4.992h11.891l2.313 4.992h7.625l-15.885-32.584Zm0 14.176 3.553 7.845h-7.105l3.552-7.845ZM217.198 70.894v7.172h7.031v25.05h7.261v-25.05h6.952v-7.172h-21.244ZM209.072 21.338v7.17h7.031V53.56h7.261V28.509h6.952v-7.17h-21.244Z"/>
        </g>
      </g>
    </g>
    <mask id="e" width="215" height="226" x="-24" y="-24" maskUnits="userSpaceOnUse" style="mask-type:luminance">
      <path fill="#fff" d="M-24 201.667h214.468V-23.667H-24v225.334Z"/>
    </mask>
    <g mask="url(#e)">
      <mask id="f" width="45" height="69" x="-1" y="26" maskUnits="userSpaceOnUse" style="mask-type:luminance">
        <path fill="#fff" d="M-.583 26.335h43.856v68.637H-.583V26.335Z"/>
      </mask>
      <g mask="url(#f)">
        <path fill="#92BF2D" d="M-.582 26.335V94.97H26.11l.008-34.319 17.155-17.155L26.11 26.335H-.582Z"/>
      </g>
      <mask id="g" width="62" height="123" x="60" y="-1" maskUnits="userSpaceOnUse" style="mask-type:luminance">
        <path fill="#fff" d="M60.429-.359h61.011v122.023H60.429V-.359Z"/>
      </mask>
      <g mask="url(#g)">
        <path fill="#266BAF" d="m121.44-.358-61.012 61.01 17.156 17.155 17.155-17.154h.008V94.97l26.693 26.692V-.358Z"/>
      </g>
    </g>
    <path fill="#64B039" d="M43.273 43.498 26.12 60.651l34.309 34.31 17.156-17.154-34.31-34.31ZM-.583-.359v26.694h26.694L-.583-.36Z"/>
    <path fill="#1E8B96" d="M94.747 121.664h26.694L94.747 94.971v26.693ZM-.583 94.972V121.665h26.694V94.971H-.583Z"/>
    <path fill="#6CB7BD" d="M77.584 77.808 60.429 94.963l-34.318.009v26.692h68.637V94.972L77.584 77.808Z"/>
    <path fill="#EED922" d="M60.43 26.334v.008L43.273 43.498 60.43 60.653 121.44-.357H-.582L26.11 26.333h34.32Z"/>
    <path fill="#3B342F" fill-rule="evenodd" d="M109.571-.358v41.58l-14.824-14.22-14.823 14.22V-.358" clip-rule="evenodd"/>
    <path fill="#fff" d="M90.712 7.736c1.227 0 2.08.304 2.56.912.48.597.72 1.259.72 1.984 0 .64-.181 1.227-.544 1.76-.352.533-.917 1.12-1.696 1.76l-1.52 1.264h3.952L94.456 17h-6.96v-1.392l3.136-2.752c.597-.523.992-.939 1.184-1.248.203-.32.31-.645.32-.976 0-.341-.128-.63-.384-.864-.256-.235-.613-.352-1.072-.352-.395 0-.848.144-1.36.432-.512.288-.784.437-.816.448l-.896-1.408c.299-.235.704-.485 1.216-.752s1.141-.4 1.888-.4Zm5.773 5.968.288-5.76h5.856l-.224 1.68h-3.872l-.096 1.904c.17-.085.357-.144.56-.176a3.02 3.02 0 0 1 .624-.064c1.195 0 2.085.336 2.672 1.008.587.672.885 1.456.896 2.352 0 1.045-.352 1.899-1.056 2.56-.704.672-1.664 1.008-2.88 1.008a5.837 5.837 0 0 1-1.824-.304 9.754 9.754 0 0 1-1.632-.688l1.024-1.456c.427.235.827.41 1.2.528.373.117.8.176 1.28.176.565 0 1.04-.16 1.424-.48.384-.33.576-.779.576-1.344 0-.523-.155-.933-.464-1.232-.299-.31-.677-.464-1.136-.464-.373 0-.677.085-.912.256-.235.16-.39.325-.464.496h-1.84ZM90.025 23.136h-1.408a.894.894 0 0 0 .164.512c.101.133.261.2.48.2.13 0 .236-.013.316-.04.083-.03.161-.061.236-.096l.1.232a.84.84 0 0 1-.324.12c-.133.027-.24.04-.32.04-.323 0-.567-.095-.732-.284-.165-.192-.248-.439-.248-.74.003-.293.081-.536.236-.728.157-.192.38-.288.668-.288.301 0 .515.107.64.32.128.21.192.461.192.752Zm-.312-.216a.867.867 0 0 0-.156-.424c-.083-.11-.208-.164-.376-.164a.488.488 0 0 0-.392.164.777.777 0 0 0-.164.424h1.088Zm1.91-.452a1.958 1.958 0 0 0-.22-.092.889.889 0 0 0-.297-.044.504.504 0 0 0-.284.072.226.226 0 0 0-.104.196c0 .075.04.139.12.192.083.05.188.097.316.14.158.056.304.132.44.228a.446.446 0 0 1 .208.384.494.494 0 0 1-.2.416c-.13.099-.322.148-.576.148-.082 0-.186-.015-.312-.044a.886.886 0 0 1-.308-.12l.096-.24c.075.037.158.07.248.096.094.027.187.04.28.04a.688.688 0 0 0 .336-.068.224.224 0 0 0 .12-.208c0-.083-.044-.155-.132-.216a1.177 1.177 0 0 0-.328-.16 1.897 1.897 0 0 1-.432-.208.42.42 0 0 1-.2-.364c0-.173.064-.308.192-.404.131-.099.307-.148.528-.148.083 0 .186.016.308.048.123.03.222.07.296.124l-.096.232Zm1.56 1.58a.977.977 0 0 1-.128.044.581.581 0 0 1-.168.024.558.558 0 0 1-.4-.144c-.098-.096-.147-.236-.147-.42v-1.164h-.276l-.004-.24h.28v-.492l.32-.092v.584h.352l.103.24h-.456v1.12c0 .099.022.18.064.244.043.061.114.092.213.092a.43.43 0 0 0 .175-.04l.072.244Zm2.427.008h-1.084l-.036-.24h.428v-1.644a6.29 6.29 0 0 1-.14.096l-.136.088a1.57 1.57 0 0 1-.076-.108 3.894 3.894 0 0 0-.072-.108l.532-.348h.212v2.024h.34a15.077 15.077 0 0 0 .032.24Zm.401-1.488c0-.213.075-.404.225-.572a.751.751 0 0 1 .587-.256.88.88 0 0 1 .677.28c.173.187.26.46.26.82 0 .293-.109.597-.325.912-.213.315-.49.508-.832.58l-.14-.204c.24-.05.445-.173.613-.368.17-.195.28-.407.332-.636-.073.061-.16.116-.264.164a.721.721 0 0 1-.313.072c-.253 0-.453-.08-.6-.24a.793.793 0 0 1-.22-.552Zm.305-.024c0 .147.045.279.135.396a.46.46 0 0 0 .38.176c.144 0 .27-.036.376-.108a.717.717 0 0 0 .24-.244c-.01-.227-.065-.41-.163-.548-.1-.141-.249-.212-.449-.212a.469.469 0 0 0-.38.168.557.557 0 0 0-.14.372Zm1.875.024c0-.213.075-.404.224-.572a.751.751 0 0 1 .588-.256.88.88 0 0 1 .676.28c.174.187.26.46.26.82 0 .293-.108.597-.324.912-.213.315-.49.508-.832.58l-.14-.204c.24-.05.444-.173.612-.368.17-.195.282-.407.332-.636-.072.061-.16.116-.264.164a.721.721 0 0 1-.312.072c-.253 0-.453-.08-.6-.24a.793.793 0 0 1-.22-.552Zm.304-.024c0 .147.046.279.136.396a.46.46 0 0 0 .38.176c.144 0 .27-.036.376-.108a.717.717 0 0 0 .24-.244c-.01-.227-.065-.41-.164-.548-.098-.141-.248-.212-.448-.212a.469.469 0 0 0-.38.168.557.557 0 0 0-.14.372Zm1.876.024a.84.84 0 0 1 .224-.572.751.751 0 0 1 .588-.256.88.88 0 0 1 .676.28c.173.187.26.46.26.82 0 .293-.108.597-.324.912-.213.315-.491.508-.832.58l-.14-.204c.24-.05.444-.173.612-.368.171-.195.281-.407.332-.636-.072.061-.16.116-.264.164a.72.72 0 0 1-.312.072c-.253 0-.453-.08-.6-.24a.792.792 0 0 1-.22-.552Zm.304-.024a.63.63 0 0 0 .136.396.46.46 0 0 0 .38.176.725.725 0 0 0 .616-.352c-.011-.227-.065-.41-.164-.548-.099-.141-.248-.212-.448-.212a.468.468 0 0 0-.38.168.559.559 0 0 0-.14.372Z"/>
  </g>
  <defs>
    <clipPath id="a">
      <path fill="#fff" d="M0 0h359v121H0z"/>
    </clipPath>
  </defs>
</svg>
