<svg xmlns="http://www.w3.org/2000/svg" viewBox="0 0 73.7 73.7">
  <g fill="#90be22">
    <polygon points="16.1 36.9 26.5 26.6 16.1 16.2 0 16.2 0 57.6 16.1 57.6 16.1 36.9"/>
    <polygon points="36.8 36.9 47.2 47.3 57.5 36.9 57.5 36.9 57.5 57.6 73.6 73.7 73.6 .1 36.8 36.9 36.8 36.9"/>
  </g>
  <g fill="#5faf30">
    <rect x="24.3" y="27.5" width="14.6" height="29.3" transform="translate(-20.5 34.7) rotate(-45)"/>
    <polygon points="0 .1 0 .1 0 16.2 16.1 16.2 0 .1"/>
    <polygon points="57.5 73.7 73.6 73.7 73.6 73.7 57.5 57.6 57.5 73.7"/>
    <polygon points="0 57.6 0 73.7 0 73.7 0 73.7 16.1 73.7 16.1 57.6 0 57.6"/>
  </g>
  <g fill="#c1d682">
    <polygon points="47.2 47.3 36.8 57.6 16.1 57.6 16.1 73.7 57.5 73.7 57.5 57.6 47.2 47.3"/>
    <polygon points="36.8 16.2 36.8 16.2 26.5 26.6 36.8 36.9 36.8 36.9 73.6 .1 0 .1 16.1 16.2 36.8 16.2"/>
  </g>
</svg>
